<?xml version="1.0" encoding="UTF-8" standalone="no"?>
<svg
   xmlns:dc="http://purl.org/dc/elements/1.1/"
   xmlns:cc="http://creativecommons.org/ns#"
   xmlns:rdf="http://www.w3.org/1999/02/22-rdf-syntax-ns#"
   xmlns:svg="http://www.w3.org/2000/svg"
   xmlns="http://www.w3.org/2000/svg"
   xmlns:sodipodi="http://sodipodi.sourceforge.net/DTD/sodipodi-0.dtd"
   xmlns:inkscape="http://www.inkscape.org/namespaces/inkscape"
   width="400"
   height="400"
   viewBox="0 0 400 400"
   version="1.1"
   xml:space="preserve"
   style="clip-rule:evenodd;fill-rule:evenodd;stroke-linejoin:round;stroke-miterlimit:1.41420996"
   id="svg4651"
   sodipodi:docname="gentoo-signet-grey.svg"
   inkscape:version="0.92.1 r"
   inkscape:export-filename="/home/telemin/downloads/grub2-gentoo-flat/theme/gentoo_logo.png"
   inkscape:export-xdpi="48"
   inkscape:export-ydpi="48"><metadata
     id="metadata4655"><rdf:RDF><cc:Work
         rdf:about=""><dc:format>image/svg+xml</dc:format><dc:type
           rdf:resource="http://purl.org/dc/dcmitype/StillImage" /><dc:title /></cc:Work></rdf:RDF></metadata><sodipodi:namedview
     pagecolor="#ffffff"
     bordercolor="#666666"
     borderopacity="1"
     objecttolerance="10"
     gridtolerance="10"
     guidetolerance="10"
     inkscape:pageopacity="0"
     inkscape:pageshadow="2"
     inkscape:window-width="1920"
     inkscape:window-height="1036"
     id="namedview4653"
     showgrid="false"
     inkscape:pagecheckerboard="true"
     units="px"
     fit-margin-top="0"
     fit-margin-left="0"
     fit-margin-right="0"
     fit-margin-bottom="0"
     inkscape:zoom="1.8101934"
     inkscape:cx="81.8108"
     inkscape:cy="205.47278"
     inkscape:window-x="0"
     inkscape:window-y="22"
     inkscape:window-maximized="0"
     inkscape:current-layer="layer1" /><defs
     id="defs4649"><linearGradient
       id="_Linear1"
       x1="0"
       y1="0"
       x2="1"
       y2="0"
       gradientUnits="userSpaceOnUse"
       gradientTransform="matrix(244.692,1281.55,-1281.55,244.692,-44.6924,-886.62)"><stop
         offset="0%"
         style="stop-color:#fff;stop-opacity:1"
         id="stop4597" /><stop
         offset="34%"
         style="stop-color:#fff;stop-opacity:1"
         id="stop4599" /><stop
         offset="51%"
         style="stop-color:#bebdf3;stop-opacity:1"
         id="stop4601" /><stop
         offset="75%"
         style="stop-color:#867fb7;stop-opacity:1"
         id="stop4603" /><stop
         offset="87%"
         style="stop-color:#9f99c7;stop-opacity:1"
         id="stop4605" /><stop
         offset="100%"
         style="stop-color:#524c76;stop-opacity:1"
         id="stop4607" /></linearGradient><linearGradient
       id="_Linear2"
       x1="0"
       y1="0"
       x2="1"
       y2="0"
       gradientUnits="userSpaceOnUse"
       gradientTransform="matrix(-73.9103,-331.394,331.394,-73.9103,256.323,293.128)"><stop
         offset="0%"
         style="stop-color:#fff;stop-opacity:1"
         id="stop4610" /><stop
         offset="34%"
         style="stop-color:#fff;stop-opacity:1"
         id="stop4612" /><stop
         offset="51%"
         style="stop-color:#bebbdb;stop-opacity:1"
         id="stop4614" /><stop
         offset="75%"
         style="stop-color:#928bbe;stop-opacity:1"
         id="stop4616" /><stop
         offset="87%"
         style="stop-color:#9f99c7;stop-opacity:1"
         id="stop4618" /><stop
         offset="100%"
         style="stop-color:#524c76;stop-opacity:1"
         id="stop4620" /></linearGradient><radialGradient
       id="_Radial3"
       cx="0"
       cy="0"
       r="1"
       gradientUnits="userSpaceOnUse"
       gradientTransform="matrix(65.7758,0,0,50.4149,169.619,91.661)"><stop
         offset="0%"
         style="stop-color:#fff;stop-opacity:1"
         id="stop4623" /><stop
         offset="34%"
         style="stop-color:#fff;stop-opacity:1"
         id="stop4625" /><stop
         offset="51%"
         style="stop-color:#bebbdb;stop-opacity:1"
         id="stop4627" /><stop
         offset="75%"
         style="stop-color:#928bbe;stop-opacity:1"
         id="stop4629" /><stop
         offset="87%"
         style="stop-color:#9f99c7;stop-opacity:1"
         id="stop4631" /><stop
         offset="100%"
         style="stop-color:#524c76;stop-opacity:1"
         id="stop4633" /></radialGradient><radialGradient
       id="_Radial4"
       cx="0"
       cy="0"
       r="1"
       gradientUnits="userSpaceOnUse"
       gradientTransform="matrix(-9.01713,572.145,-487.965,-7.68295,19.9686,107.795)"><stop
         offset="0%"
         style="stop-color:#fff;stop-opacity:1"
         id="stop4636" /><stop
         offset="34%"
         style="stop-color:#fff;stop-opacity:1"
         id="stop4638" /><stop
         offset="51%"
         style="stop-color:#bebbdb;stop-opacity:1"
         id="stop4640" /><stop
         offset="75%"
         style="stop-color:#928bbe;stop-opacity:1"
         id="stop4642" /><stop
         offset="87%"
         style="stop-color:#9f99c7;stop-opacity:1"
         id="stop4644" /><stop
         offset="100%"
         style="stop-color:#524c76;stop-opacity:1"
         id="stop4646" /></radialGradient></defs><g
     inkscape:groupmode="layer"
     id="layer1"
     inkscape:label="background"
     transform="translate(-2.3941177,20.27665)"><rect
       style="opacity:1;fill:#444444;fill-opacity:1;stroke:none;stroke-width:0.3797279;stroke-miterlimit:4;stroke-dasharray:none;stroke-opacity:1"
       id="rect4671"
       width="400"
       height="400"
       x="2.3941176"
       y="-20.276649" /></g><g
     inkscape:groupmode="layer"
     id="layer3"
     inkscape:label="foreground"
     transform="translate(-2.3941177,20.27665)"
     sodipodi:insensitive="true"><g
       style="clip-rule:evenodd;fill-rule:evenodd;stroke-linejoin:round;stroke-miterlimit:1.41420996"
       id="Ebene-1"
       transform="matrix(1.0260136,0,0,1.0260136,-2.8085453,-25.479377)"><g
         id="g5680"><path
           id="path2973"
           d="M 13.83,315.949 C 13.873,299.502 27.854,276.541 47.719,255.681 60.995,241.74 74.478,229.503 103.869,204.443 83.539,193.287 51.919,179.828 36.054,162.201 30.184,155.679 19.543,140.903 21.607,121.162 25.813,80.926 75.476,19.864 146.067,6.955 c 23.488,-4.296 50.455,-1.195 72.65,8.783 69.629,31.304 154.782,109.073 165.259,147.046 3.688,13.366 2.979,34.671 -3.379,46.545 -7.879,14.716 -35.156,44.606 -72.475,75.449 C 249.566,333.172 167.51,385.137 106.241,393.881 86.443,396.707 66.217,393.76 52.023,385.751 29.814,373.219 22.442,356.489 19.851,351.474 12.96,338.14 13.815,321.246 13.83,315.949 Z m 164.8,-184.776 c 0.756,-9.325 37.321,-0.042 35.011,7.343 -2.437,7.791 -35.879,3.354 -35.011,-7.343 z"
           style="fill:url(#_Linear1)"
           inkscape:connector-curvature="0" /><g
           id="mid"><path
             id="path2975"
             d="m 123.659,189.035 c -19.242,16.246 -32.036,27.2 -48.075,41.86 -38.626,35.304 -64.871,62.176 -51.34,98.909 15.609,42.374 49.824,40.226 89.947,32.35 C 217.612,341.756 387.617,211.059 378.952,162.784 371.94,123.723 276.96,46.063 220.725,18.428 203.156,9.794 182.909,5.329 162.601,6.285 85.274,9.935 24.886,80.337 27.971,118.482 c 3.001,37.11 96.795,69.446 95.688,70.553 z M 112.052,59.482 c -23.268,25.888 -8.392,75.974 30.195,103.274 45.152,31.945 118.269,37.729 132.819,13.093 27.14,-45.952 -2.493,-94.54 -46.727,-116.214 C 184.628,38.217 126.556,43.345 112.052,59.482 Z"
             style="fill:url(#_Linear2)"
             inkscape:connector-curvature="0" /><path
             id="path4976"
             d="m 191.403,161.67 c 32.666,4.541 60.822,-8.541 65.225,-40.798 3.354,-24.571 -34.25,-51.417 -56.859,-57.608 -18.88,-5.171 -59.869,1.478 -62.633,37.186 -2.872,37.121 35.22,58.573 54.267,61.22 z M 175.407,99.931 c -21.468,33.258 31.169,43.483 39.228,37.418 34.744,-26.149 -29.77,-52.07 -39.228,-37.418 z"
             style="fill:url(#_Radial3)"
             inkscape:connector-curvature="0" /></g><path
           id="path2977"
           d="m 156.368,15.122 c -37.974,4.001 -45.246,8.889 -79.647,34.916 -11.53,8.723 -32.75,29.948 -38.187,55.128 -2.071,9.59 0.377,17.87 7.283,23.676 22.116,18.593 59.131,33.677 89.498,48.259 8.894,4.271 3.005,12.015 -11.338,24.432 -36.194,31.334 -85.128,69.476 -88.544,98.54 -1.61,13.695 3.079,32.305 19.702,41.828 19.419,11.125 59.729,3.864 86.646,-6.159 39.334,-14.647 91.003,-46.973 132.023,-78.748 42.655,-33.043 82.316,-75.011 84.277,-81.856 2.409,-8.406 2.169,-16.169 -2.48,-25.096 C 348.3,136.025 338.539,125.61 328.059,113.951 299.937,84.304 270.183,58.254 234.584,38.291 208.877,23.875 186.259,11.972 156.368,15.122 Z m 55.781,66.466 c 27.434,13.263 55.606,48.102 -0.245,68.154 -15.187,5.453 -63.352,-13.391 -61.878,-39.107 2.15,-37.987 28.625,-45.242 62.123,-29.047 z"
           style="fill:url(#_Radial4)"
           inkscape:connector-curvature="0" /></g></g></g></svg>